<?xml version="1.0" standalone="no"?>
<!DOCTYPE svg PUBLIC "-//W3C//DTD SVG 20010904//EN"
 "http://www.w3.org/TR/2001/REC-SVG-20010904/DTD/svg10.dtd">
<svg version="1.0" xmlns="http://www.w3.org/2000/svg"
 width="500.000000pt" height="500.000000pt" viewBox="0 0 500.000000 500.000000"
 preserveAspectRatio="xMidYMid meet">

<g transform="translate(0.000000,500.000000) scale(0.100000,-0.100000)"
fill="#000000" stroke="none">
<path d="M2260 4479 c-188 -22 -428 -90 -598 -171 -51 -24 -89 -48 -85 -52 4
-5 3 -6 -4 -2 -15 8 -76 -28 -65 -39 4 -5 2 -5 -5 -1 -31 18 -310 -196 -454
-349 -113 -120 -244 -298 -233 -317 4 -6 3 -8 -3 -5 -21 13 -143 -235 -203
-414 -67 -200 -91 -336 -97 -561 -8 -277 17 -457 97 -698 87 -261 212 -477
401 -692 72 -81 236 -237 251 -238 4 -1 21 -14 38 -30 80 -74 422 -262 482
-264 14 -1 24 -4 22 -8 -4 -6 137 -54 181 -62 11 -1 27 -6 35 -9 85 -34 294
-58 485 -56 181 2 314 16 448 48 161 39 387 122 387 143 0 5 4 7 9 3 26 -15
316 168 445 281 161 141 359 368 339 388 -3 3 -1 6 5 6 22 0 178 271 167 290
-3 5 -2 10 4 10 15 0 87 194 121 325 49 189 63 330 56 555 -3 107 -10 218 -16
245 -6 28 -13 64 -15 80 -8 59 -27 125 -35 120 -4 -2 -5 6 -3 18 9 48 -183
507 -206 492 -4 -2 -8 2 -8 9 0 20 -74 127 -84 120 -5 -3 -6 1 -3 9 3 8 -8 28
-25 45 -16 18 -27 32 -23 32 3 0 -3 9 -13 20 -10 11 -22 17 -26 14 -5 -3 -6 1
-3 9 3 8 -9 27 -28 43 -18 17 -47 46 -64 66 -69 79 -256 232 -269 220 -5 -4
-6 -2 -2 3 5 10 -142 114 -151 107 -3 -2 -8 1 -11 6 -10 15 -128 77 -231 120
-253 107 -472 149 -770 150 -91 0 -199 -4 -240 -9z m485 -60 c175 -24 380 -80
528 -143 20 -9 37 -13 37 -9 0 5 4 3 8 -3 4 -6 36 -26 71 -44 269 -135 556
-393 724 -651 57 -87 145 -250 165 -304 6 -16 24 -66 41 -110 126 -330 148
-756 57 -1125 -32 -130 -99 -305 -162 -426 -29 -56 -50 -105 -46 -109 4 -5 1
-5 -5 -1 -12 7 -18 -6 -13 -29 1 -5 -2 -7 -6 -3 -4 4 -20 -13 -36 -39 -35 -54
-126 -171 -183 -232 -22 -24 -39 -47 -38 -52 2 -5 -1 -8 -5 -6 -7 2 -117 -92
-196 -167 -17 -16 -33 -28 -35 -26 -1 1 -25 -14 -52 -34 -27 -20 -50 -36 -53
-36 -2 0 -35 -19 -72 -42 -188 -114 -451 -206 -694 -243 -127 -20 -409 -22
-530 -5 -495 71 -917 304 -1235 682 -40 47 -76 83 -80 80 -4 -4 -6 -2 -5 3 5
21 0 36 -10 30 -6 -4 -9 -3 -8 2 5 14 -85 152 -95 146 -6 -3 -7 -1 -4 4 8 13
-69 164 -79 155 -4 -4 -4 -2 0 5 4 7 0 25 -8 40 -51 99 -123 362 -146 532 -17
122 -14 397 5 515 47 289 137 535 280 761 32 50 62 98 69 108 17 29 74 94 154
177 39 42 69 80 65 85 -5 4 -3 5 3 2 7 -4 26 9 43 28 17 20 31 32 31 28 0 -4
4 -3 8 2 24 34 216 169 327 230 39 21 73 44 77 49 4 6 8 8 8 4 0 -4 28 5 63
21 141 63 382 130 542 151 149 19 345 19 490 -1z"/>
<path d="M1746 4033 c-40 -40 -34 -72 35 -192 34 -58 73 -126 87 -151 14 -25
57 -99 95 -165 125 -217 167 -293 167 -303 0 -13 -31 -25 -41 -15 -6 7 -120
204 -361 626 -56 96 -88 123 -139 112 -33 -8 -69 -48 -69 -79 0 -25 16 -53
244 -450 164 -286 176 -309 159 -321 -14 -11 -21 -11 -29 -2 -6 7 -100 167
-208 357 -109 190 -207 353 -218 363 -50 43 -138 3 -138 -64 0 -24 71 -156
273 -507 149 -261 282 -481 294 -489 11 -8 31 -15 42 -16 12 -1 21 -4 21 -7 0
-4 37 -21 83 -40 45 -18 87 -38 94 -44 6 -6 192 -326 413 -711 222 -385 427
-741 456 -791 81 -140 145 -185 259 -186 62 -1 145 30 145 53 0 6 -228 407
-507 892 -279 485 -507 888 -507 897 -1 8 5 74 13 147 l14 131 -258 449 c-315
548 -293 511 -313 522 -34 17 -80 10 -106 -16z m131 -133 c77 -133 398 -691
445 -772 l38 -68 -15 -122 c-8 -67 -15 -132 -15 -143 0 -21 45 -101 668 -1185
231 -400 327 -577 319 -582 -17 -11 -76 -10 -119 2 -55 16 -95 69 -227 300
-461 804 -775 1347 -786 1359 -8 8 -69 38 -137 67 l-123 52 -89 154 c-332 576
-446 778 -446 792 0 9 8 16 20 16 21 0 10 19 281 -455 92 -159 174 -294 183
-300 12 -8 30 -3 72 20 73 40 79 51 47 106 -14 24 -36 64 -50 89 -25 44 -208
362 -305 528 -52 90 -60 122 -29 122 19 0 21 -3 309 -504 75 -131 144 -244
153 -249 13 -8 30 -2 75 24 33 19 60 42 62 51 2 9 -56 119 -129 245 -72 125
-148 257 -169 293 -57 101 -80 142 -107 188 -26 44 -25 76 3 70 9 -2 41 -46
71 -98z"/>
<path d="M3323 3985 c-72 -20 -161 -66 -265 -137 -194 -133 -322 -304 -383
-514 -44 -151 -48 -340 -11 -482 l16 -63 -47 -81 c-36 -62 -44 -84 -36 -97 23
-37 41 -23 97 77 l56 99 -14 40 c-19 55 -36 169 -36 245 1 266 125 521 330
678 40 30 81 63 91 73 11 9 22 17 27 17 4 0 43 19 87 42 72 38 87 43 152 43
63 0 76 -3 115 -30 27 -19 52 -48 68 -80 24 -48 25 -57 24 -225 -1 -145 -5
-189 -23 -255 -82 -305 -316 -541 -616 -619 -33 -8 -66 -23 -73 -33 -37 -51
-172 -302 -172 -321 0 -16 6 -22 23 -22 20 0 37 23 107 145 45 79 87 149 94
154 6 5 38 16 71 26 241 69 451 248 562 481 55 117 81 220 92 361 20 261 -25
396 -152 457 -68 33 -120 39 -184 21z"/>
<path d="M3275 3812 c-81 -28 -145 -70 -228 -151 -55 -53 -77 -81 -75 -96 5
-31 42 -30 69 2 82 95 187 168 277 193 49 13 64 36 37 56 -23 17 -19 17 -80
-4z"/>
<path d="M2306 2138 c-86 -137 -643 -1123 -640 -1133 9 -22 85 -47 145 -47 69
0 133 26 180 74 19 19 105 158 191 309 86 151 195 341 242 423 66 115 83 152
75 163 -30 35 -45 14 -274 -384 -126 -219 -241 -417 -257 -440 -16 -24 -45
-49 -71 -62 -43 -21 -121 -28 -143 -13 -7 4 95 189 278 507 350 607 343 592
327 611 -17 20 -36 17 -53 -8z"/>
</g>
</svg>
